PathFileType	4	(X/Y/Z)	D:\TRACE\spot_10-12-23\spot_arm_body_motion_1_4-v60.trc
DataRate	CameraRate	NumFrames	NumMarkers	Units	OrigDataRate	OrigDataStartFrame	OrigNumFrames
100.00	100.00	      21	9	mm	100.00	6126	      7000
Frame#	Time	front left toe			Front right toe			aft left toe			aft right toe			Arm			FL body			FR body			AL Body			AR Body			
		X1	Y1	Z1	X2	Y2	Z2	X3	Y3	Z3	X4	Y4	Z4	X5	Y5	Z5	X6	Y6	Z6	X7	Y7	Z7	X8	Y8	Z8	X9	Y9	Z9	

6126	61.250	53.21050	30.88159	-392.61252	439.27640	44.74285	-479.94217	214.10847	11.59573	172.95961	586.79834	24.77395	87.47485	153.76047	796.64539	-733.27429	95.77167	606.62903	-467.99634	245.14197	610.20532	-508.95416	331.67941	566.13727	381.89926	468.87210	564.77661	346.90302	
6127	61.260	54.23358	30.98288	-392.56631	440.12701	44.87390	-479.96976	215.03534	11.25413	173.03394	587.82324	24.71468	87.41812	153.82428	799.43097	-730.98889	96.70776	606.71954	-468.33582	246.16318	610.49762	-509.40588	332.78732	566.06323	381.74362	469.97159	564.78284	346.79282	
6128	61.270	55.11914	31.06553	-392.34055	441.68585	45.32855	-479.34995	216.30052	10.97515	173.19490	588.81219	24.52523	87.39336	154.18117	801.64368	-728.87329	97.69656	607.18848	-468.34741	246.84854	610.91785	-509.47906	334.00946	565.37042	381.36740	470.76010	563.88379	345.81790	
6129	61.280	56.29043	31.22441	-392.18735	442.02518	45.32808	-479.98187	217.19177	10.92588	173.26118	589.59119	23.74744	86.88995	155.19283	803.15039	-727.08716	98.40842	608.10205	-468.09412	247.61514	611.63434	-509.38611	335.43433	564.60547	381.05655	472.67834	563.55231	346.10846	
6130	61.290	57.31795	31.49020	-392.13446	443.23602	45.95156	-479.35110	218.20804	10.98412	173.32066	590.48016	23.79441	86.88033	156.38664	804.31830	-725.72754	99.34765	608.79645	-467.66592	247.79137	612.77728	-509.16849	337.24304	564.01404	380.89514	473.93454	562.67572	345.41949	
6131	61.300	58.03238	31.80506	-392.07053	444.19968	46.12412	-479.32013	219.15204	10.99095	173.44800	591.71997	23.86577	87.02713	157.93158	804.26898	-725.15137	100.35227	609.70148	-467.22702	249.22128	613.41394	-509.02347	338.79510	563.65350	381.14505	475.49966	562.42700	345.50601	
6132	61.310	58.91664	32.12226	-391.92896	444.91293	46.05880	-479.76361	220.09973	11.02663	173.47397	592.77246	23.84487	87.21899	159.69284	803.66327	-725.07349	101.77204	610.28204	-466.86154	250.05928	614.14746	-508.77487	340.61700	563.45801	381.57672	477.73047	561.82019	345.70874	
6133	61.320	60.10925	32.06667	-391.83691	445.74997	46.02391	-479.84152	221.92661	9.93399	173.24387	594.07318	23.92886	87.18314	161.00981	802.65796	-725.00562	102.43327	610.87061	-466.37195	251.04979	614.56909	-508.37286	342.18777	563.13007	381.62363	479.50253	561.51166	346.07452	
6134	61.330	61.12111	32.12644	-391.70123	446.92648	46.28883	-479.34546	222.96391	9.81642	173.35014	595.08331	23.84573	87.26777	162.14583	801.28546	-725.29138	103.82027	611.32074	-466.00351	252.86668	614.77515	-507.82092	343.64914	562.95898	382.30264	480.12939	561.37537	346.13385	
6135	61.340	61.85203	32.24780	-391.84561	448.10165	46.45708	-479.01230	223.84831	9.98649	173.42110	596.07526	23.87652	87.44090	163.40443	800.17206	-725.74780	105.58281	611.50562	-465.47974	253.70438	615.01447	-507.44049	345.03326	562.96796	382.53610	481.63574	561.48773	346.83926	
6136	61.350	62.98763	32.52517	-391.95676	448.90225	46.33920	-479.37881	224.64795	10.30610	173.42810	597.19513	24.08079	87.57806	164.05994	799.15973	-726.10522	107.35432	611.69824	-465.24051	256.06128	615.02496	-507.22046	346.52499	563.23138	383.15253	483.02905	561.40924	347.19345	
6137	61.360	63.94291	33.04767	-391.96182	450.03458	46.51451	-479.08374	225.63255	10.36105	173.35590	598.37604	24.14951	87.86021	164.80276	798.20398	-726.67096	109.24261	611.86835	-465.04184	258.34967	615.01715	-506.70059	347.89719	563.19110	383.43085	484.41022	561.45209	347.53403	
6138	61.370	64.95415	33.05820	-391.83295	451.23901	46.47175	-479.06427	226.43475	10.34542	173.36526	598.87506	24.07971	88.33275	165.29070	797.59570	-726.85767	111.26102	611.73901	-464.67773	260.20175	614.79419	-506.22629	349.30466	563.14087	383.96158	485.97983	561.20447	348.42252	
6139	61.380	66.20301	32.90797	-391.80310	452.64722	46.53619	-478.61682	227.15695	10.95755	174.03239	599.88062	24.09578	88.32323	165.64398	797.33044	-726.96204	113.97217	611.15405	-464.34402	261.81964	614.48370	-505.97125	350.29156	563.08911	384.37988	487.21167	561.01672	348.89212	
6140	61.390	67.20588	33.09242	-391.87320	453.76996	46.40002	-478.54401	228.01910	10.97237	174.16432	600.82941	23.99580	88.50799	165.90665	797.33795	-727.00543	115.35548	611.35980	-464.11209	264.35452	614.25848	-505.60287	352.09079	562.84808	385.03329	488.90933	561.24097	349.93793	
6141	61.400	68.14665	33.37042	-391.88727	454.40222	46.16481	-478.83298	229.17906	10.29193	173.72664	601.73462	23.99133	88.55511	166.11232	797.55609	-726.97992	117.69563	611.40277	-463.74210	266.10739	614.24969	-504.98700	353.72861	562.74268	385.29843	490.95154	560.44415	350.11993	
6142	61.410	69.09644	33.55324	-391.83490	455.42917	46.42657	-478.59677	230.11934	10.98479	174.08678	602.68610	23.93741	88.61852	166.42403	798.10242	-726.89496	120.09378	611.24219	-463.36792	268.90518	614.02606	-505.15582	355.84155	562.45508	385.79514	492.21411	560.08777	350.29941	
6143	61.420	70.25246	33.73082	-391.54031	456.19452	46.51080	-478.63257	231.01344	11.05548	174.09705	603.84296	23.93775	88.79069	166.78111	798.56030	-726.74646	121.50970	611.51068	-462.72015	270.72015	614.02136	-504.39590	357.70126	562.26343	386.17899	494.43179	559.70654	350.89444	
6144	61.430	71.21459	33.67395	-391.45514	456.89914	46.53689	-478.60532	231.83897	11.10996	174.17941	604.79517	23.74689	88.88269	167.31581	798.86591	-726.43982	123.46989	611.42426	-462.32550	272.53671	613.82971	-503.71185	359.65958	561.71234	386.45157	496.95718	559.15637	351.41846	
6145	61.440	72.12202	33.82919	-391.39258	457.95511	46.69216	-478.42822	233.19629	10.48167	174.08972	605.89319	23.70196	88.86228	167.93729	799.11292	-726.19543	125.39699	611.33142	-461.68439	274.35989	613.53766	-503.15048	362.14709	561.29993	387.22321	499.27231	558.87506	352.03018	
6146	61.450	73.19270	34.01195	-391.32288	459.50235	47.04250	-477.99960	234.26497	10.49228	174.24536	607.06781	23.70113	88.87344	168.70686	799.31433	-726.06390	127.38860	611.43164	-460.83994	276.53772	613.57269	-502.35632	364.64221	561.26752	387.93939	501.27951	558.32721	352.06213	
